PathFileType	3	(X/Y/Z)	RCH0000002 BBF 03.c3d
DataRate	CameraRate	NumFrames	NumMarkers	Units	OrigDataRate	OrigDataStartFrame	OrigNumFrames
100.0	100.0	6	23	mm	100.0	261	376
Frame#	Time	T2			T10			LASI			LPSI			RPSI			LANK			LMED			LTOE			RPAT			RANK			RMED			RHEE			RTOE			MAN			LPAT			RKNE			LKNE			RASI			LHEE			RTHI			LTHI			RTIB			LTIB			
		X1	Y1	Z1	X2	Y2	Z2	X3	Y3	Z3	X4	Y4	Z4	X5	Y5	Z5	X6	Y6	Z6	X7	Y7	Z7	X8	Y8	Z8	X9	Y9	Z9	X10	Y10	Z10	X11	Y11	Z11	X12	Y12	Z12	X13	Y13	Z13	X14	Y14	Z14	X15	Y15	Z15	X16	Y16	Z16	X17	Y17	Z17	X18	Y18	Z18	X19	Y19	Z19	X20	Y20	Z20	X21	Y21	Z21	X22	Y22	Z22	X23	Y23	Z23	

261	2.600	-1202.38896	8.04375	987.34231	-1190.88099	-15.42867	799.43330	-1106.28479	76.46690	655.49338	-1208.41121	9.48099	708.75872	-1202.08842	-60.15078	706.06020	-1247.02717	101.93235	75.46950	-1241.43342	33.61309	95.68941	-1196.28783	67.38285	68.63224	-984.70538	-54.96637	404.78676	-1178.27713	-109.84897	138.98759	-1178.41113	-40.34892	148.28470	-1205.43771	-74.15469	183.02929	-1137.15881	-78.40255	112.25114	-1072.22700	8.75855	956.10769	-1134.64698	45.10895	380.33036	-1035.07814	-102.40796	363.75561	-1184.34086	102.89421	347.33950	-1086.80961	-100.05652	653.72248	-1283.58649	62.57940	110.38559	-1056.71581	-176.02656	470.62052	-1173.02070	167.95847	474.41389	-1100.15223	-170.58128	276.66908	-1218.38182	167.89884	231.58984	
262	2.610	-1193.76476	8.37792	987.65706	-1183.90758	-15.04081	799.60912	-1099.98998	77.48731	655.73769	-1201.74309	9.30374	708.34037	-1194.87771	-60.17406	705.35744	-1246.39502	102.47301	75.98879	-1240.41711	34.29930	96.46224	-1195.61909	68.02712	68.72209	-970.81318	-53.01816	409.83401	-1154.41005	-106.69933	137.33089	-1154.90032	-37.14874	146.56946	-1183.26665	-71.07531	180.17533	-1112.15457	-75.24899	112.42308	-1063.76832	8.37057	955.50692	-1130.89321	46.34369	379.85137	-1019.68846	-100.26720	367.00119	-1181.31361	103.87746	347.55776	-1078.88625	-98.86486	653.74218	-1282.45167	63.16612	111.44992	-1044.17750	-174.52857	472.82842	-1168.95273	168.81155	474.58496	-1081.56712	-168.02808	277.40030	-1216.54655	168.73121	231.91715	
263	2.620	-1185.02163	8.60145	987.80592	-1176.80170	-14.79237	799.65523	-1093.56028	78.43703	655.90694	-1194.92658	9.05136	707.80988	-1187.52058	-60.27698	704.47862	-1245.79373	102.96592	76.50378	-1239.38091	34.95321	97.21392	-1194.97339	68.64762	68.79710	-957.50832	-50.92587	414.47275	-1130.24363	-103.80114	135.43471	-1131.28041	-34.21887	144.58207	-1160.89388	-68.34605	176.96078	-1087.05005	-72.21686	112.36248	-1055.19699	7.95120	954.73939	-1127.06204	47.51701	379.31762	-1004.76318	-98.05455	369.92649	-1178.20205	104.81733	347.75598	-1070.82322	-97.72099	653.54382	-1281.32275	63.68958	112.50940	-1031.87421	-172.96219	474.69198	-1164.74501	169.63375	474.71663	-1062.91938	-165.56020	277.81390	-1214.71469	169.51237	232.24464	
264	2.630	-1176.15345	8.67974	987.78906	-1169.53444	-14.68657	799.56985	-1086.96443	79.32869	655.99603	-1187.92341	8.73744	707.16578	-1179.97778	-60.44536	703.43014	-1245.21944	103.40216	77.02717	-1238.31517	35.56239	97.94807	-1194.34918	69.23394	68.85952	-944.83089	-48.67094	418.58465	-1105.88026	-101.16230	133.26341	-1107.68040	-31.57772	142.28129	-1138.42653	-65.99483	173.35597	-1061.95703	-69.30131	112.01678	-1046.50322	7.49872	953.81870	-1123.12709	48.62977	378.73013	-990.36619	-95.76537	372.43764	-1174.98360	105.70553	347.93349	-1062.58916	-96.61114	653.12839	-1280.19181	64.13894	113.57669	-1019.82619	-171.31289	476.15424	-1160.38017	170.42290	474.80541	-1044.27280	-163.18108	277.85730	-1212.87877	170.23122	232.58049	
265	2.640	-1167.15746	8.58311	987.60541	-1162.07737	-14.72218	799.34783	-1080.17203	80.17631	655.99556	-1180.69702	8.37342	706.40169	-1172.20982	-60.66684	702.21725	-1244.66284	103.77895	77.57272	-1237.20995	36.11861	98.66932	-1193.74147	69.77933	68.91150	-932.80364	-46.23749	422.05025	-1081.46176	-98.78337	130.78046	-1084.26109	-29.23638	139.62864	-1116.00216	-64.03942	169.33980	-1037.02436	-66.49501	111.32974	-1037.67979	7.01210	952.75988	-1119.04809	49.68654	378.08514	-976.54686	-93.39944	374.44138	-1171.62136	106.53570	348.08401	-1054.15073	-95.52074	652.49935	-1279.04595	64.51076	114.66629	-1008.03075	-169.56646	477.16486	-1155.83421	171.17680	474.84421	-1025.70597	-160.89183	277.47911	-1211.01462	170.88045	232.93067	
266	2.650	-1158.03426	8.28806	987.25245	-1154.40265	-14.89331	798.98080	-1073.15416	80.99442	655.89158	-1173.21366	7.96944	705.50742	-1164.17877	-60.93029	700.84494	-1244.10982	104.09725	78.15457	-1236.05486	36.61604	99.38306	-1193.14204	70.27938	68.95499	-921.43022	-43.61275	424.75608	-1057.17470	-96.66056	127.95486	-1061.21665	-27.20026	136.59453	-1093.79198	-62.48755	164.90638	-1012.44190	-63.79299	110.24821	-1028.72220	6.49114	951.57906	-1114.77125	50.69384	377.37242	-963.33687	-90.96116	375.85094	-1168.06424	107.30268	348.19377	-1045.47457	-94.43541	651.66279	-1277.86746	64.80594	115.79381	-996.46291	-167.70958	477.68391	-1151.07544	171.89281	474.82038	-1007.31335	-158.69177	276.63558	-1209.08231	171.45523	233.29717	
